{
  "accessors": [
    {
      "bufferView": 2,
      "componentType": 5126,
      "count": 593,
      "max": [
        0.30944782495498657,
        0.30944782495498657,
        0.5400318503379822
      ],
      "min": [
        -0.30944782495498657,
        -0.30944782495498657,
        -0.00014846131671220064
      ],
      "type": "VEC3"
    },
    {
      "bufferView": 2,
      "byteOffset": 7116,
      "componentType": 5126,
      "count": 593,
      "max": [
        0.9999793767929077,
        0.9999793171882629,
        0.998620867729187
      ],
      "min": [
        -0.9999793171882629,
        -0.9999793171882629,
        -1.0
      ],
      "type": "VEC3"
    },
    {
      "bufferView": 3,
      "componentType": 5126,
      "count": 593,
      "max": [
        0.995859682559967,
        0.995859682559967,
        0.9999793767929077,
        1.0
      ],
      "min": [
        -0.9958593845367432,
        -0.995859682559967,
        -0.9998916983604431,
        1.0
      ],
      "type": "VEC4"
    },
    {
      "bufferView": 1,
      "componentType": 5126,
      "count": 593,
      "max": [
        0.9649340510368347,
        0.9957989454269409
      ],
      "min": [
        0.00420105317607522,
        0.00420105317607522
      ],
      "type": "VEC2"
    },
    {
      "bufferView": 0,
      "componentType": 5125,
      "count": 2208,
      "type": "SCALAR"
    },
    {
      "bufferView": 2,
      "byteOffset": 14232,
      "componentType": 5126,
      "count": 29,
      "max": [
        0.2800000011920929,
        0.2800000011920929,
        -0.03020544908940792
      ],
      "min": [
        -0.2800000011920929,
        -0.2800000011920929,
        -0.03020544908940792
      ],
      "type": "VEC3"
    },
    {
      "bufferView": 2,
      "byteOffset": 14580,
      "componentType": 5126,
      "count": 29,
      "max": [
        1.019490198927997e-07,
        0.0,
        1.0
      ],
      "min": [
        -3.874933440783934e-08,
        0.0,
        1.0
      ],
      "type": "VEC3"
    },
    {
      "bufferView": 1,
      "byteOffset": 4744,
      "componentType": 5126,
      "count": 29,
      "max": [
        1.0,
        1.0
      ],
      "min": [
        0.0,
        0.0
      ],
      "type": "VEC2"
    },
    {
      "bufferView": 0,
      "byteOffset": 8832,
      "componentType": 5125,
      "count": 42,
      "type": "SCALAR"
    },
    {
      "bufferView": 2,
      "byteOffset": 14928,
      "componentType": 5126,
      "count": 633,
      "max": [
        1.5012702941894531,
        0.9351799488067627,
        3.5639827251434326
      ],
      "min": [
        -0.3370018005371094,
        -0.032199129462242126,
        -0.008111119270324707
      ],
      "type": "VEC3"
    },
    {
      "bufferView": 2,
      "byteOffset": 22524,
      "componentType": 5126,
      "count": 633,
      "max": [
        0.996870219707489,
        0.9999284148216248,
        0.9183079600334167
      ],
      "min": [
        -0.9882284998893738,
        -0.9999279379844666,
        -0.9967893958091736
      ],
      "type": "VEC3"
    },
    {
      "bufferView": 1,
      "byteOffset": 4976,
      "componentType": 5126,
      "count": 633,
      "max": [
        0.9826619625091553,
        0.8618575930595398
      ],
      "min": [
        0.023391686379909515,
        0.06404590606689453
      ],
      "type": "VEC2"
    },
    {
      "bufferView": 0,
      "byteOffset": 9000,
      "componentType": 5125,
      "count": 3036,
      "type": "SCALAR"
    },
    {
      "bufferView": 2,
      "byteOffset": 30120,
      "componentType": 5126,
      "count": 578,
      "max": [
        1.034043312072754,
        1.2606945037841797,
        3.648515462875366
      ],
      "min": [
        -0.6800225377082825,
        0.014602422714233398,
        0.07958793640136719
      ],
      "type": "VEC3"
    },
    {
      "bufferView": 2,
      "byteOffset": 37056,
      "componentType": 5126,
      "count": 578,
      "max": [
        0.9899467825889587,
        0.9999309182167053,
        0.9915130138397217
      ],
      "min": [
        -0.9937297701835632,
        -0.9996020793914795,
        -0.9967494010925293
      ],
      "type": "VEC3"
    },
    {
      "bufferView": 1,
      "byteOffset": 10040,
      "componentType": 5126,
      "count": 578,
      "max": [
        0.9826619625091553,
        0.8618575930595398
      ],
      "min": [
        0.02354174107313156,
        0.06404590606689453
      ],
      "type": "VEC2"
    },
    {
      "bufferView": 0,
      "byteOffset": 21144,
      "componentType": 5125,
      "count": 2790,
      "type": "SCALAR"
    },
    {
      "bufferView": 2,
      "byteOffset": 43992,
      "componentType": 5126,
      "count": 654,
      "max": [
        1.271148443222046,
        0.8577986359596252,
        3.893742561340332
      ],
      "min": [
        -0.4005122184753418,
        -0.012004733085632324,
        -0.034876346588134766
      ],
      "type": "VEC3"
    },
    {
      "bufferView": 2,
      "byteOffset": 51840,
      "componentType": 5126,
      "count": 654,
      "max": [
        0.9801499843597412,
        0.999668300151825,
        0.9956268072128296
      ],
      "min": [
        -0.9802430272102356,
        -0.9984409213066101,
        -0.9770745635032654
      ],
      "type": "VEC3"
    },
    {
      "bufferView": 1,
      "byteOffset": 14664,
      "componentType": 5126,
      "count": 654,
      "max": [
        0.9826619625091553,
        0.8618575930595398
      ],
      "min": [
        0.02354174107313156,
        0.06404590606689453
      ],
      "type": "VEC2"
    },
    {
      "bufferView": 0,
      "byteOffset": 32304,
      "componentType": 5125,
      "count": 3132,
      "type": "SCALAR"
    },
    {
      "bufferView": 2,
      "byteOffset": 59688,
      "componentType": 5126,
      "count": 584,
      "max": [
        0.19703885912895203,
        1.2361925840377808,
        2.6849489212036133
      ],
      "min": [
        -1.4894505739212036,
        -0.011405959725379944,
        -0.024602770805358887
      ],
      "type": "VEC3"
    },
    {
      "bufferView": 2,
      "byteOffset": 66696,
      "componentType": 5126,
      "count": 584,
      "max": [
        0.9990648031234741,
        0.9999879002571106,
        0.9885026812553406
      ],
      "min": [
        -0.9997345209121704,
        -0.9996420741081238,
        -0.9988585710525513
      ],
      "type": "VEC3"
    },
    {
      "bufferView": 1,
      "byteOffset": 19896,
      "componentType": 5126,
      "count": 584,
      "max": [
        0.9826619625091553,
        0.8618575930595398
      ],
      "min": [
        0.02354174107313156,
        0.06404590606689453
      ],
      "type": "VEC2"
    },
    {
      "bufferView": 0,
      "byteOffset": 44832,
      "componentType": 5125,
      "count": 2844,
      "type": "SCALAR"
    },
    {
      "bufferView": 2,
      "byteOffset": 73704,
      "componentType": 5126,
      "count": 628,
      "max": [
        0.692452073097229,
        1.8288618326187134,
        2.7722105979919434
      ],
      "min": [
        -1.0556976795196533,
        -0.01705126464366913,
        -0.016291797161102295
      ],
      "type": "VEC3"
    },
    {
      "bufferView": 2,
      "byteOffset": 81240,
      "componentType": 5126,
      "count": 628,
      "max": [
        0.9990681409835815,
        0.9998635649681091,
        0.9891260862350464
      ],
      "min": [
        -0.9988413453102112,
        -0.9992766976356506,
        -0.9966802000999451
      ],
      "type": "VEC3"
    },
    {
      "bufferView": 1,
      "byteOffset": 24568,
      "componentType": 5126,
      "count": 628,
      "max": [
        0.9826619625091553,
        0.8618575930595398
      ],
      "min": [
        0.02354174107313156,
        0.06404590606689453
      ],
      "type": "VEC2"
    },
    {
      "bufferView": 0,
      "byteOffset": 56208,
      "componentType": 5125,
      "count": 3084,
      "type": "SCALAR"
    },
    {
      "bufferView": 2,
      "byteOffset": 88776,
      "componentType": 5126,
      "count": 568,
      "max": [
        1.213906168937683,
        0.2284269630908966,
        3.1332292556762695
      ],
      "min": [
        -0.7085193991661072,
        -2.0762228965759277,
        -0.025549650192260742
      ],
      "type": "VEC3"
    },
    {
      "bufferView": 2,
      "byteOffset": 95592,
      "componentType": 5126,
      "count": 568,
      "max": [
        0.9927902817726135,
        0.9980732202529907,
        0.9743444919586182
      ],
      "min": [
        -0.9977170825004578,
        -0.9998763203620911,
        -0.9921629428863525
      ],
      "type": "VEC3"
    },
    {
      "bufferView": 1,
      "byteOffset": 29592,
      "componentType": 5126,
      "count": 568,
      "max": [
        0.9826619625091553,
        0.8618575930595398
      ],
      "min": [
        0.02354174107313156,
        0.06404590606689453
      ],
      "type": "VEC2"
    },
    {
      "bufferView": 0,
      "byteOffset": 68544,
      "componentType": 5125,
      "count": 2748,
      "type": "SCALAR"
    }
  ],
  "asset": {
    "extras": {
      "author": "vyacha3d (https://sketchfab.com/vyacha3d)",
      "license": "CC-BY-4.0 (http://creativecommons.org/licenses/by/4.0/)",
      "source": "https://sketchfab.com/3d-models/indoor-plant-with-pot-a-fc5448f56b4940498079147d7d557ac8",
      "title": "Indoor Plant with pot (a)"
    },
    "generator": "Sketchfab-14.41.0",
    "version": "2.0"
  },
  "bufferViews": [
    {
      "buffer": 0,
      "byteLength": 79536,
      "name": "floatBufferViews",
      "target": 34963
    },
    {
      "buffer": 0,
      "byteLength": 34136,
      "byteOffset": 79536,
      "byteStride": 8,
      "name": "floatBufferViews",
      "target": 34962
    },
    {
      "buffer": 0,
      "byteLength": 102408,
      "byteOffset": 113672,
      "byteStride": 12,
      "name": "floatBufferViews",
      "target": 34962
    },
    {
      "buffer": 0,
      "byteLength": 9488,
      "byteOffset": 216080,
      "byteStride": 16,
      "name": "floatBufferViews",
      "target": 34962
    }
  ],
  "buffers": [
    {
      "byteLength": 225568,
      "uri": "scene.bin"
    }
  ],
  "extensionsRequired": [
    "KHR_materials_pbrSpecularGlossiness"
  ],
  "extensionsUsed": [
    "KHR_materials_pbrSpecularGlossiness"
  ],
  "images": [
    {
      "uri": "textures/Pot_A_diffuse.png"
    },
    {
      "uri": "textures/Pot_A_specularGlossiness.png"
    },
    {
      "uri": "textures/Pot_A_normal.png"
    },
    {
      "uri": "textures/soil_A_diffuse.png"
    },
    {
      "uri": "textures/Plant_A_diffuse.png"
    }
  ],
  "materials": [
    {
      "doubleSided": true,
      "extensions": {
        "KHR_materials_pbrSpecularGlossiness": {
          "diffuseFactor": [
            1.0,
            1.0,
            1.0,
            1.0
          ],
          "diffuseTexture": {
            "index": 0
          },
          "glossinessFactor": 1.0,
          "specularFactor": [
            0.1,
            0.1,
            0.1
          ],
          "specularGlossinessTexture": {
            "index": 1
          }
        }
      },
      "name": "Pot_A",
      "normalTexture": {
        "index": 2
      }
    },
    {
      "doubleSided": true,
      "extensions": {
        "KHR_materials_pbrSpecularGlossiness": {
          "diffuseFactor": [
            1.0,
            1.0,
            1.0,
            1.0
          ],
          "diffuseTexture": {
            "index": 3
          },
          "glossinessFactor": 1.0,
          "specularFactor": [
            0.0,
            0.0,
            0.0
          ]
        }
      },
      "name": "soil_A"
    },
    {
      "doubleSided": true,
      "extensions": {
        "KHR_materials_pbrSpecularGlossiness": {
          "diffuseFactor": [
            1.0,
            1.0,
            1.0,
            1.0
          ],
          "diffuseTexture": {
            "index": 4
          },
          "glossinessFactor": 0.5,
          "specularFactor": [
            0.05,
            0.05,
            0.05
          ]
        }
      },
      "name": "Plant_A"
    }
  ],
  "meshes": [
    {
      "name": "Pot A_Pot A_0",
      "primitives": [
        {
          "attributes": {
            "NORMAL": 1,
            "POSITION": 0,
            "TANGENT": 2,
            "TEXCOORD_0": 3
          },
          "indices": 4,
          "material": 0,
          "mode": 4
        }
      ]
    },
    {
      "name": "Circle_soil A_0",
      "primitives": [
        {
          "attributes": {
            "NORMAL": 6,
            "POSITION": 5,
            "TEXCOORD_0": 7
          },
          "indices": 8,
          "material": 1,
          "mode": 4
        }
      ]
    },
    {
      "name": "Plane A1_Plant A_0",
      "primitives": [
        {
          "attributes": {
            "NORMAL": 10,
            "POSITION": 9,
            "TEXCOORD_0": 11
          },
          "indices": 12,
          "material": 2,
          "mode": 4
        }
      ]
    },
    {
      "name": "Plane A1.001_Plant A_0",
      "primitives": [
        {
          "attributes": {
            "NORMAL": 14,
            "POSITION": 13,
            "TEXCOORD_0": 15
          },
          "indices": 16,
          "material": 2,
          "mode": 4
        }
      ]
    },
    {
      "name": "Plane A1.002_Plant A_0",
      "primitives": [
        {
          "attributes": {
            "NORMAL": 18,
            "POSITION": 17,
            "TEXCOORD_0": 19
          },
          "indices": 20,
          "material": 2,
          "mode": 4
        }
      ]
    },
    {
      "name": "Plane A1.003_Plant A_0",
      "primitives": [
        {
          "attributes": {
            "NORMAL": 22,
            "POSITION": 21,
            "TEXCOORD_0": 23
          },
          "indices": 24,
          "material": 2,
          "mode": 4
        }
      ]
    },
    {
      "name": "Plane A1.004_Plant A_0",
      "primitives": [
        {
          "attributes": {
            "NORMAL": 26,
            "POSITION": 25,
            "TEXCOORD_0": 27
          },
          "indices": 28,
          "material": 2,
          "mode": 4
        }
      ]
    },
    {
      "name": "Plane A1.005_Plant A_0",
      "primitives": [
        {
          "attributes": {
            "NORMAL": 30,
            "POSITION": 29,
            "TEXCOORD_0": 31
          },
          "indices": 32,
          "material": 2,
          "mode": 4
        }
      ]
    }
  ],
  "nodes": [
    {
      "children": [
        1
      ],
      "matrix": [
        1.0,
        0.0,
        0.0,
        0.0,
        0.0,
        2.220446049250313e-16,
        -1.0,
        0.0,
        0.0,
        1.0,
        2.220446049250313e-16,
        0.0,
        0.0,
        0.0,
        0.0,
        1.0
      ],
      "name": "Sketchfab_model"
    },
    {
      "children": [
        2
      ],
      "matrix": [
        0.009999999776482582,
        0.0,
        0.0,
        0.0,
        0.0,
        0.0,
        0.009999999776482582,
        0.0,
        0.0,
        -0.009999999776482582,
        0.0,
        0.0,
        0.0,
        0.0,
        0.0,
        1.0
      ],
      "name": "5181f48d75314c8586c911d1188889fe.fbx"
    },
    {
      "children": [
        3
      ],
      "name": "RootNode"
    },
    {
      "children": [
        4,
        5,
        7,
        9,
        11,
        13,
        15,
        17
      ],
      "matrix": [
        47.86915588378906,
        0.0,
        0.0,
        0.0,
        0.0,
        -7.798875398500398e-06,
        -47.86915588378843,
        0.0,
        0.0,
        47.86915588378843,
        -7.798875398500398e-06,
        0.0,
        0.0,
        0.0,
        0.0,
        1.0
      ],
      "name": "Pot A"
    },
    {
      "mesh": 0,
      "name": "Pot A_Pot A_0"
    },
    {
      "children": [
        6
      ],
      "matrix": [
        1.0,
        0.0,
        0.0,
        0.0,
        0.0,
        1.0,
        -2.646977960169688e-23,
        0.0,
        0.0,
        2.646977960169688e-23,
        1.0,
        0.0,
        0.0,
        -2.6469779601696886e-23,
        0.5307770371437073,
        1.0
      ],
      "name": "Circle"
    },
    {
      "mesh": 1,
      "name": "Circle_soil A_0"
    },
    {
      "children": [
        8
      ],
      "matrix": [
        0.05474251002125797,
        0.1994616994773711,
        0.040115709910445,
        0.0,
        -0.4192531951316485,
        0.13265918700875237,
        -0.0874832992846947,
        0.0,
        -0.108078712438162,
        -0.05709567848893654,
        0.4313746684672754,
        0.0,
        -0.07096190750598907,
        0.0291751641780138,
        0.49162203073501587,
        1.0
      ],
      "name": "Plane A1"
    },
    {
      "mesh": 2,
      "name": "Plane A1_Plant A_0"
    },
    {
      "children": [
        10
      ],
      "matrix": [
        0.15608000233968528,
        0.06956088340343945,
        0.008318071882326328,
        0.0,
        -0.1358089460430433,
        0.29985274490046043,
        0.040759300318930956,
        0.0,
        0.0021124340507533744,
        -0.04640010765522981,
        0.3483888824146582,
        0.0,
        -0.002359324600547552,
        0.06528373807668686,
        0.4416782259941101,
        1.0
      ],
      "name": "Plane A1.001"
    },
    {
      "mesh": 3,
      "name": "Plane A1.001_Plant A_0"
    },
    {
      "children": [
        12
      ],
      "matrix": [
        0.14124055059839138,
        -0.12533939016735798,
        -0.029786687464566006,
        0.0,
        0.1737751738507223,
        0.20448326073278036,
        -0.03644936906676488,
        0.0,
        0.055758754878922775,
        -0.00014676876764496233,
        0.2650107756024371,
        0.0,
        0.06006042659282684,
        0.03800457715988159,
        0.4971681535243988,
        1.0
      ],
      "name": "Plane A1.002"
    },
    {
      "mesh": 4,
      "name": "Plane A1.002_Plant A_0"
    },
    {
      "children": [
        14
      ],
      "matrix": [
        0.08513780265330992,
        0.2310706043773188,
        0.030258858697827518,
        0.0,
        -0.33012383401070317,
        0.11929125832409408,
        0.01788946102309123,
        0.0,
        0.0021124308671581814,
        -0.04640009391083225,
        0.3483888842645064,
        0.0,
        -0.04078986868262291,
        -0.11702178418636322,
        0.4889415204524994,
        1.0
      ],
      "name": "Plane A1.003"
    },
    {
      "mesh": 5,
      "name": "Plane A1.003_Plant A_0"
    },
    {
      "children": [
        16
      ],
      "matrix": [
        -0.09312851822231265,
        -0.12865147269781976,
        -0.04554974394879569,
        0.0,
        0.19330970307440073,
        -0.1231018085598799,
        -0.04753961393844011,
        0.0,
        0.0030793712043209495,
        -0.08008833702251476,
        0.21990694915455866,
        0.0,
        0.052697934210300446,
        -0.023965300992131233,
        0.49733415246009827,
        1.0
      ],
      "name": "Plane A1.004"
    },
    {
      "mesh": 6,
      "name": "Plane A1.004_Plant A_0"
    },
    {
      "children": [
        18
      ],
      "matrix": [
        0.14828814198416038,
        0.005027770248694152,
        -0.0002295094757706794,
        0.0,
        -0.007260282027342823,
        0.21544528371129637,
        0.028738053308338195,
        0.0,
        0.00168693782447326,
        -0.03705413344646711,
        0.27821598949775744,
        0.0,
        0.008683728985488415,
        -0.06072496995329857,
        0.4863301217556,
        1.0
      ],
      "name": "Plane A1.005"
    },
    {
      "mesh": 7,
      "name": "Plane A1.005_Plant A_0"
    }
  ],
  "samplers": [
    {
      "magFilter": 9729,
      "minFilter": 9987,
      "wrapS": 10497,
      "wrapT": 10497
    }
  ],
  "scene": 0,
  "scenes": [
    {
      "name": "Sketchfab_Scene",
      "nodes": [
        0
      ]
    }
  ],
  "textures": [
    {
      "sampler": 0,
      "source": 0
    },
    {
      "sampler": 0,
      "source": 1
    },
    {
      "sampler": 0,
      "source": 2
    },
    {
      "sampler": 0,
      "source": 3
    },
    {
      "sampler": 0,
      "source": 4
    }
  ]
}
